<svg width="30" height="30" viewBox="0 0 30 30" fill="none" xmlns="http://www.w3.org/2000/svg">
<path d="M27.3752 0H2.62475C1.17469 0 0 1.17578 0 2.62475V27.3752C0 28.8253 1.17579 30 2.62475 30H27.3752C28.8253 30 30 28.8242 30 27.3752V2.62475C30 1.17469 28.8242 0 27.3752 0ZM5.86363 27.5468C3.98084 27.5468 2.45429 26.0203 2.45429 24.1375C2.45429 22.2547 3.98084 20.7281 5.86363 20.7281C7.74641 20.7281 9.27297 22.2547 9.27297 24.1375C9.27297 26.0203 7.74641 27.5468 5.86363 27.5468ZM15 18.4093C13.1172 18.4093 11.5907 16.8828 11.5907 15C11.5907 13.1172 13.1172 11.5907 15 11.5907C16.8828 11.5907 18.4093 13.1172 18.4093 15C18.4093 16.8828 16.8828 18.4093 15 18.4093ZM24.1364 9.27297C22.2536 9.27297 20.727 7.74641 20.727 5.86363C20.727 3.98084 22.2536 2.45429 24.1364 2.45429C26.0192 2.45429 27.5457 3.98084 27.5457 5.86363C27.5457 7.74641 26.0192 9.27297 24.1364 9.27297Z" fill="white"/>
</svg>
