<!DOCTYPE svg PUBLIC "-//W3C//DTD SVG 1.1//EN" "http://www.w3.org/Graphics/SVG/1.1/DTD/svg11.dtd">

<!-- Uploaded to: SVG Repo, www.svgrepo.com, Transformed by: SVG Repo Mixer Tools -->
<svg fill="#ffffff" height="800px" width="800px" version="1.1" id="Layer_1" xmlns="http://www.w3.org/2000/svg" xmlns:xlink="http://www.w3.org/1999/xlink" viewBox="0 0 512 512" xml:space="preserve" stroke="#ffffff">

<g id="SVGRepo_bgCarrier" stroke-width="0"/>

<g id="SVGRepo_tracerCarrier" stroke-linecap="round" stroke-linejoin="round"/>

<g id="SVGRepo_iconCarrier"> <g> <g> <g> <path d="M341.333,320c-5.888,0-10.667,4.779-10.667,10.667V480c0,5.888-4.779,10.667-10.667,10.667H64 c-5.888,0-10.667-4.779-10.667-10.667V32c0-5.888,4.779-10.667,10.667-10.667h256c5.888,0,10.667,4.779,10.667,10.667v149.333 c0,5.888,4.779,10.667,10.667,10.667c5.888,0,10.667-4.779,10.667-10.667V32c0-17.643-14.357-32-32-32H64 C46.357,0,32,14.357,32,32v448c0,17.643,14.357,32,32,32h256c17.643,0,32-14.357,32-32V330.667 C352,324.779,347.221,320,341.333,320z"/> <path d="M476.352,247.979l-85.333-74.667c-3.136-2.752-7.637-3.413-11.435-1.685c-3.797,1.728-6.251,5.525-6.251,9.707v32H256 c-5.888,0-10.667,4.779-10.667,10.667v64c0,5.888,4.779,10.667,10.667,10.667h117.333v32c0,4.181,2.432,7.979,6.251,9.707 c1.408,0.64,2.923,0.96,4.416,0.96c2.539,0,5.035-0.896,7.019-2.645l85.333-74.667c2.325-2.027,3.648-4.949,3.648-8.021 S478.677,250.005,476.352,247.979z M394.667,307.157V288c0-5.888-4.779-10.667-10.667-10.667H266.667v-42.667H384 c5.888,0,10.667-4.779,10.667-10.667v-19.157L453.141,256L394.667,307.157z"/> </g> </g> </g> </g>

</svg>