<svg width="60" height="60" viewBox="0 0 60 60" fill="none" xmlns="http://www.w3.org/2000/svg">
<path d="M16.2654 4.14163L3.3668 13.3908L14.5907 16.8003L27.6342 6.59448L16.2654 4.14163ZM29.5059 7.78405L15.6723 18.3262L21.6571 33.6898L22.6572 32.8161L23.1529 30.9753C22.8173 30.7567 22.5296 30.4012 22.3365 29.9662C22.1434 29.5313 22.0561 29.0425 22.0888 28.5789C22.1208 28.1287 22.2642 27.7277 22.497 27.4372C22.7297 27.1467 23.039 26.9826 23.3775 26.9702C23.5175 26.9651 23.6602 26.986 23.8017 27.0323C23.9261 27.0738 24.0485 27.1345 24.1665 27.2133L25.097 23.7586C25.1083 23.7172 25.1221 23.6765 25.1384 23.6367C25.1406 23.6317 25.1429 23.6267 25.1452 23.6217C25.1565 23.5944 25.169 23.5677 25.1827 23.5414C25.1861 23.5354 25.1896 23.5294 25.1932 23.5235C25.2067 23.4985 25.2211 23.4741 25.2366 23.4503C25.256 23.421 25.2769 23.3927 25.2991 23.3655C25.3017 23.3626 25.3043 23.3597 25.3069 23.3569C25.3269 23.3327 25.348 23.3095 25.3702 23.2873C25.3944 23.2629 25.4198 23.2397 25.4463 23.2178C25.4465 23.2177 25.4466 23.2176 25.4468 23.2175C25.4643 23.2036 25.4823 23.1902 25.5007 23.1775C25.511 23.1696 25.5213 23.1619 25.5319 23.1544C25.5511 23.142 25.5707 23.1303 25.5907 23.1192C25.6011 23.1129 25.6117 23.1068 25.6223 23.1008C25.6393 23.0922 25.6565 23.0841 25.6739 23.0764C25.6886 23.0691 25.7034 23.0622 25.7184 23.0556C25.7354 23.0492 25.7524 23.0433 25.7697 23.0378C25.7855 23.0318 25.8016 23.0262 25.8177 23.021C25.8334 23.0167 25.8492 23.0128 25.865 23.0093C25.8833 23.0043 25.9016 22.9999 25.9201 22.9959C25.94 22.9926 25.9599 22.9899 25.9799 22.9877C25.9943 22.9855 26.0088 22.9835 26.0232 22.9819C26.0236 22.9819 26.024 22.9819 26.0244 22.9819C26.0248 22.9818 26.0252 22.9816 26.0256 22.9815L29.9659 22.6448C30.0561 22.3083 30.2159 22.0246 30.4287 21.8231C30.6415 21.6216 30.8996 21.5098 31.176 21.4991C31.316 21.4939 31.4588 21.5148 31.6004 21.5612C31.9824 21.6874 32.3378 21.9928 32.5997 22.4198L34.1282 22.2894L29.5061 7.78359L29.5059 7.78405ZM16.084 8.67538C16.5798 8.6857 17.0001 8.79324 17.2734 8.97979C17.5467 9.16633 17.6564 9.42039 17.5838 9.6989C17.5003 10.019 17.1826 10.347 16.7005 10.6106C16.2184 10.8743 15.6113 11.0521 15.0129 11.1049C14.7166 11.1311 14.4313 11.1257 14.1733 11.0892C13.9153 11.0527 13.6897 10.9857 13.5094 10.8921C13.3291 10.7985 13.1976 10.6801 13.1224 10.5437C13.0472 10.4072 13.0297 10.2554 13.0711 10.0969C13.1123 9.93836 13.2116 9.77624 13.3631 9.61978C13.5146 9.46332 13.7155 9.31558 13.9542 9.185C14.1929 9.05441 14.4649 8.94354 14.7545 8.85871C15.044 8.77389 15.3456 8.71677 15.642 8.69062C15.7925 8.67742 15.9405 8.67232 16.0838 8.67538H16.084ZM27.8297 11.4313C27.9696 11.4262 28.1124 11.4471 28.2539 11.4934C28.6693 11.6293 29.0521 11.9765 29.3183 12.4587C29.5845 12.9408 29.7122 13.5185 29.6733 14.0645C29.654 14.3349 29.5944 14.5893 29.4979 14.8134C29.4014 15.0374 29.2699 15.2267 29.1108 15.3703C28.9517 15.5139 28.7683 15.609 28.5709 15.6503C28.3735 15.6916 28.166 15.6782 27.9604 15.6109C27.7547 15.5436 27.5548 15.4238 27.3722 15.2582C27.1895 15.0926 27.0277 14.8845 26.8958 14.6457C26.764 14.407 26.6648 14.1423 26.6039 13.8667C26.543 13.5912 26.5215 13.3102 26.5407 13.0398C26.5728 12.5897 26.7162 12.1887 26.949 11.8982C27.1818 11.6077 27.4912 11.4437 27.8297 11.4313ZM2.83829 15.4348L8.34516 28.8087L19.3884 33.5407L13.9992 18.8255L2.83829 15.4346V15.4348ZM20.1687 17.4773C20.3087 17.4721 20.4515 17.4929 20.5931 17.5392C21.0084 17.6752 21.3912 18.0224 21.6574 18.5046C21.9235 18.9867 22.0512 19.5643 22.0123 20.1103C21.993 20.3807 21.9334 20.6352 21.8369 20.8592C21.7404 21.0833 21.6089 21.2725 21.4498 21.4161C21.2908 21.5597 21.1073 21.6549 20.91 21.6962C20.7126 21.7375 20.5051 21.7241 20.2995 21.6568C19.8841 21.5209 19.5013 21.1737 19.2351 20.6915C18.9689 20.2094 18.8412 19.6318 18.8801 19.0857C18.9122 18.6357 19.0555 18.2347 19.2882 17.9442C19.521 17.6537 19.8302 17.4898 20.1687 17.4773ZM11.3652 19.0026C11.6557 18.9868 12.0198 19.1589 12.387 19.4854C12.7541 19.8119 13.0981 20.2695 13.3521 20.7696C13.4867 21.0345 13.5922 21.3036 13.6625 21.5617C13.7328 21.8198 13.7666 22.0618 13.762 22.2738C13.7574 22.4858 13.7144 22.6638 13.6355 22.7975C13.5567 22.9312 13.4434 23.018 13.3023 23.053C13.0173 23.1236 12.636 22.9788 12.2423 22.6505C11.8486 22.3221 11.4748 21.8372 11.2031 21.3023C10.9315 20.7676 10.7842 20.2268 10.7935 19.7987C10.8028 19.3706 10.968 19.0904 11.2528 19.0195C11.2887 19.0105 11.3261 19.0049 11.3652 19.0026ZM42.2316 23.7148L29.0946 24.8371L42.4261 34.2034L55.7384 32.2164L42.2316 23.7144V23.7148ZM8.29922 24.8463C8.58969 24.8304 8.95387 25.0024 9.32107 25.3289C9.68827 25.6554 10.0323 26.1132 10.2864 26.6133C10.5581 27.1481 10.7055 27.6892 10.6962 28.1174C10.6869 28.5456 10.5215 28.8258 10.2366 28.8966C9.95154 28.9671 9.57026 28.8224 9.17659 28.4941C8.78292 28.1658 8.40911 27.6809 8.13739 27.146C7.8657 26.6112 7.71832 26.0703 7.72766 25.6421C7.737 25.214 7.90229 24.9337 8.18719 24.863C8.22305 24.8541 8.2606 24.8486 8.29969 24.8466L8.29922 24.8463ZM26.742 25.7619L21.8742 43.8308L35.423 55.4856L40.948 35.743L26.742 25.7621V25.7619ZM41.6232 27.0707C41.9869 27.0774 42.3871 27.132 42.7892 27.2296C43.1914 27.3273 43.5833 27.4651 43.931 27.6312C44.2118 27.7653 44.4576 27.9148 44.6544 28.0713C44.8512 28.2277 44.9951 28.3881 45.0778 28.5431C45.1606 28.6981 45.1807 28.8447 45.1369 28.9747C45.093 29.1046 44.9862 29.2153 44.8225 29.3004C44.6588 29.3855 44.4414 29.4434 44.1827 29.4707C43.9239 29.498 43.629 29.4943 43.3147 29.4597C43.0003 29.425 42.6728 29.3602 42.3507 29.2689C42.0286 29.1776 41.7182 29.0616 41.4374 28.9275C40.8703 28.6567 40.4577 28.3287 40.2905 28.0156C40.1232 27.7026 40.215 27.4302 40.5456 27.2583C40.7969 27.1277 41.1725 27.0623 41.6231 27.0708L41.6232 27.0707ZM57.1617 34.1367L42.9961 36.2511L37.509 55.8585L51.1376 52.1354L57.1617 34.1367ZM35.8561 35.4023C36.0216 35.4025 36.1887 35.4397 36.3527 35.5128C36.5911 35.6192 36.8192 35.7997 37.024 36.0441C37.2289 36.2885 37.4064 36.5919 37.5465 36.9371C37.6865 37.2823 37.7864 37.6624 37.8405 38.0558C37.8945 38.4493 37.9016 38.8483 37.8613 39.23C37.7799 40.001 37.5107 40.655 37.1128 41.0482C36.7149 41.4415 36.221 41.5417 35.7396 41.3269C35.5012 41.2205 35.2731 41.04 35.0683 40.7957C34.8635 40.5513 34.6859 40.2479 34.5458 39.9027C34.4057 39.5575 34.3058 39.1773 34.2518 38.7839C34.1978 38.3905 34.1907 37.9915 34.2309 37.6097C34.298 36.9743 34.4933 36.4144 34.7868 36.0157C35.0803 35.6171 35.4559 35.4016 35.8561 35.4023ZM53.9131 36.7659C54.2954 36.7546 54.6123 36.9252 54.8122 37.2499C55.0471 37.6315 55.1028 38.197 54.967 38.8219C54.8313 39.4468 54.5153 40.08 54.0885 40.5821C53.6617 41.0842 53.1591 41.4142 52.6913 41.4994C52.2235 41.5847 51.8287 41.4182 51.5939 41.0366C51.3591 40.655 51.3034 40.0896 51.4391 39.4647C51.5748 38.8398 51.8908 38.2066 52.3175 37.7045C52.56 37.4193 52.8294 37.1868 53.1057 37.0243C53.382 36.8618 53.658 36.7735 53.9132 36.766L53.9131 36.7659ZM45.8627 38.0156C46.2451 38.0043 46.5619 38.1749 46.7618 38.4996C46.9966 38.8812 47.0523 39.4467 46.9166 40.0716C46.7809 40.6965 46.4648 41.3297 46.0381 41.8318C45.6113 42.3339 45.1087 42.6639 44.6409 42.7491C44.173 42.8343 43.7783 42.6678 43.5435 42.2862C43.3087 41.9045 43.2531 41.3391 43.3888 40.7142C43.5246 40.0893 43.8406 39.4562 44.2673 38.9541C44.5098 38.6689 44.7792 38.4364 45.0554 38.2739C45.3317 38.1114 45.6077 38.0231 45.8629 38.0156H45.8627ZM25.4726 39.5748C25.6382 39.575 25.8053 39.6123 25.9695 39.6855C26.2078 39.7919 26.4359 39.9725 26.6407 40.2168C26.8455 40.4612 27.023 40.7647 27.1631 41.1098C27.3032 41.455 27.4031 41.8351 27.4571 42.2286C27.5111 42.622 27.5182 43.021 27.4779 43.4027C27.4376 43.7845 27.3508 44.1416 27.2224 44.4536C27.094 44.7656 26.9264 45.0264 26.7294 45.2211C26.5324 45.4158 26.3097 45.5407 26.0741 45.5884C25.8384 45.6362 25.5945 45.6061 25.3561 45.4997C25.1177 45.3933 24.8896 45.2128 24.6848 44.9684C24.48 44.7241 24.3025 44.4206 24.1624 44.0754C24.0223 43.7303 23.9224 43.3501 23.8684 42.9567C23.8144 42.5633 23.8073 42.1643 23.8475 41.7825C23.9146 41.147 24.1097 40.5871 24.4032 40.1884C24.6967 39.7896 25.0722 39.5741 25.4725 39.5747L25.4726 39.5748ZM50.3489 46.708C50.7311 46.6968 51.0479 46.8674 51.2477 47.192C51.4826 47.5735 51.5383 48.139 51.4026 48.7638C51.2669 49.3887 50.951 50.0219 50.5242 50.5241C50.0974 51.0262 49.5948 51.3561 49.127 51.4413C48.6592 51.5265 48.2645 51.3599 48.0297 50.9783C47.7948 50.5967 47.7391 50.0313 47.8748 49.4064C48.0105 48.7815 48.3265 48.1484 48.7533 47.6462C48.9957 47.361 49.2651 47.1285 49.5414 46.966C49.8177 46.8035 50.0938 46.7152 50.3489 46.7078V46.708ZM42.1069 48.9917C42.4891 48.9806 42.8059 49.1512 43.0057 49.476C43.2406 49.8575 43.2963 50.4229 43.1606 51.0478C43.0249 51.6727 42.7089 52.3059 42.2822 52.8081C42.0709 53.0567 41.8387 53.2656 41.5989 53.423C41.3592 53.5804 41.1166 53.6831 40.8849 53.7252C40.6533 53.7674 40.4372 53.7482 40.2489 53.6687C40.0606 53.5892 39.9039 53.4511 39.7876 53.2621C39.5528 52.8805 39.4972 52.315 39.6329 51.6901C39.7686 51.0653 40.0846 50.4321 40.5114 49.93C40.7538 49.6448 41.0232 49.4123 41.2995 49.2498C41.5758 49.0873 41.8519 48.9991 42.107 48.9916L42.1069 48.9917Z" fill="white"/>
</svg>
